<?xml version="1.0" standalone="no"?>
<!DOCTYPE svg PUBLIC "-//W3C//DTD SVG 20010904//EN"
 "http://www.w3.org/TR/2001/REC-SVG-20010904/DTD/svg10.dtd">
<svg version="1.0" xmlns="http://www.w3.org/2000/svg"
 width="256.000000pt" height="256.000000pt" viewBox="0 0 256.000000 256.000000"
 preserveAspectRatio="xMidYMid meet">
<metadata>
Created by potrace 1.11, written by Peter Selinger 2001-2013
</metadata>
<g transform="translate(0.000000,256.000000) scale(0.100000,-0.100000)"
fill="#000000" stroke="none">
<path d="M430 1280 l0 -960 105 0 105 0 0 105 0 105 105 0 105 0 0 -105 0
-105 430 0 430 0 0 105 0 105 105 0 105 0 0 -105 0 -105 105 0 105 0 0 960 0
960 -105 0 -105 0 0 -105 0 -105 -105 0 -105 0 0 105 0 105 -430 0 -430 0 0
-105 0 -105 -105 0 -105 0 0 105 0 105 -105 0 -105 0 0 -960z m420 425 l0
-105 -105 0 -105 0 0 105 0 105 105 0 105 0 0 -105z m1070 0 l0 -105 -105 0
-105 0 0 105 0 105 105 0 105 0 0 -105z m-1070 -425 l0 -110 -105 0 -105 0 0
110 0 110 105 0 105 0 0 -110z m1070 0 l0 -110 -105 0 -105 0 0 110 0 110 105
0 105 0 0 -110z m-1070 -425 l0 -105 -105 0 -105 0 0 105 0 105 105 0 105 0 0
-105z m1070 0 l0 -105 -105 0 -105 0 0 105 0 105 105 0 105 0 0 -105z"/>
</g>
</svg>
